<svg width="32" height="21" viewBox="0 0 32 21" fill="none" xmlns="http://www.w3.org/2000/svg">
<path d="M10.026 20.052C15.5633 20.052 20.0521 15.5632 20.0521 10.026C20.0521 4.4888 15.5633 0 10.026 0C4.48881 0 0 4.4888 0 10.026C0 15.5632 4.48881 20.052 10.026 20.052Z" fill="#EB001B"/>
<path d="M21.4845 20.052C27.0218 20.052 31.5106 15.5632 31.5106 10.026C31.5106 4.4888 27.0218 0 21.4845 0C15.9473 0 11.4585 4.4888 11.4585 10.026C11.4585 15.5632 15.9473 20.052 21.4845 20.052Z" fill="#F79E1B"/>
<path d="M20.0522 10.0244C20.0522 6.5869 18.3335 3.5791 15.7554 1.86035C13.1772 3.72233 11.4585 6.73013 11.4585 10.0244C11.4585 13.3187 13.1772 16.4697 15.7554 18.1884C18.3335 16.4697 20.0522 13.4619 20.0522 10.0244Z" fill="#FF5F00"/>
</svg>
